# xmcd
#
# Track frame offsets: 
#        150
#        10865
#        23519
#        35566
#        46836
#        59918
#        73509
#        84537
#        93819
#        104187
#        113801
#        126158
#        137682
#        157641
#        169227
#        182054
#        194736
#        206444
#        219261
#        231052
#        244364
#
# Disc length: 3418 seconds
#
# Revision: 3
# Processed by: cddbd v1.5.2PL0 Copyright (c) Steve Scherf et al.
# Submitted via: ExactAudioCopyFreeDBPlugin 1.0
#
DISCID=240d5815
DTITLE=Various Artist - BBC Soul Deep:  The Story of Black Popular Mu
DTITLE=sic (39 Soul, Gospel, Funk and R&B Classics from the BBC TV Ser
DTITLE=ies)
DYEAR=2005
DGENRE=Rhythm and Blues
TTITLE0=The Bar Kays - Soul Finger
TTITLE1=Louis Jordan - Let the Good Times Roll
TTITLE2=Louis Jordan - Caldonia
TTITLE3=Sam Cooke with The Soul Stirrers - Jesus Give Me Water
TTITLE4=Ruth Brown - Mama He Treats Your Daughter Mean
TTITLE5=Big Joe Turner - Shake Rattle and Roll
TTITLE6=Fats Domino - Ain't That a Shame
TTITLE7=Sam Cooke with The Soul Stirrers - Touch the Hem of His Garmen
TTITLE7=t
TTITLE8=Fats Domino - Blue Monday
TTITLE9=Little Richard - Ready Teddy
TTITLE10=James Brown and The Famous Flames - Please Please Please
TTITLE11=The Staple Singers - Sit Down Servant
TTITLE12=The Isley Brothers - Shout
TTITLE13=Solomon Burke - Cry to Me
TTITLE14=Smokey Robinson and The Miracles - Shop Around
TTITLE15=Etta James - Something's Got a Hold on Me
TTITLE16=The Supremes - Let Me Go the Right Way
TTITLE17=Mary Wells - My Guy
TTITLE18=The Supremes - Baby Love
TTITLE19=Martha Reeves and The Vandellas - Nowhere to Run
TTITLE20=The Impressions - People Get Ready
EXTD=
EXTT0=
EXTT1=
EXTT2=
EXTT3=
EXTT4=
EXTT5=
EXTT6=
EXTT7=
EXTT8=
EXTT9=
EXTT10=
EXTT11=
EXTT12=
EXTT13=
EXTT14=
EXTT15=
EXTT16=
EXTT17=
EXTT18=
EXTT19=
EXTT20=
PLAYORDER=
